<?xml version="1.0" encoding="UTF-8" standalone="no"?>
<!DOCTYPE svg PUBLIC "-//W3C//DTD SVG 1.1//EN" "http://www.w3.org/Graphics/SVG/1.1/DTD/svg11.dtd">
<svg width="100%" height="100%" viewBox="0 0 12 12" version="1.1" xmlns="http://www.w3.org/2000/svg" xmlns:xlink="http://www.w3.org/1999/xlink" xml:space="preserve" xmlns:serif="http://www.serif.com/" style="fill-rule:evenodd;clip-rule:evenodd;stroke-linejoin:round;stroke-miterlimit:2;">
    <g transform="matrix(6.12323e-17,1,-1,6.12323e-17,12,0)">
        <path d="M10.875,0.75C10.669,0.75 10.5,0.919 10.5,1.125L10.5,10.875C10.5,11.081 10.669,11.25 10.875,11.25C11.081,11.25 11.25,11.081 11.25,10.875L11.25,1.125C11.25,0.919 11.081,0.75 10.875,0.75ZM1.125,0.75C0.919,0.75 0.75,0.919 0.75,1.125L0.75,10.875C0.75,11.081 0.919,11.25 1.125,11.25C1.331,11.25 1.5,11.081 1.5,10.875L1.5,1.125C1.5,0.919 1.331,0.75 1.125,0.75Z"/>
    </g>
    <g transform="matrix(4.11112e-17,0.671397,-1,6.12323e-17,11.9562,3.46452)">
        <path d="M4.5,9.75C4.5,10.161 4.839,10.5 5.25,10.5L6.75,10.5C7.161,10.5 7.5,10.161 7.5,9.75L7.5,2.25C7.5,1.839 7.161,1.5 6.75,1.5L5.25,1.5C4.839,1.5 4.5,1.839 4.5,2.25L4.5,9.75Z" style="fill-rule:nonzero;"/>
    </g>
    <g transform="matrix(4.11112e-17,0.671397,-1,6.12323e-17,11.9562,5.46452)">
        <path d="M4.5,9.75C4.5,10.161 4.839,10.5 5.25,10.5L6.75,10.5C7.161,10.5 7.5,10.161 7.5,9.75L7.5,2.25C7.5,1.839 7.161,1.5 6.75,1.5L5.25,1.5C4.839,1.5 4.5,1.839 4.5,2.25L4.5,9.75Z" style="fill-rule:nonzero;"/>
    </g>
</svg>
